<mxfile host="app.diagrams.net" modified="2024-03-19T11:07:13.544Z" agent="Mozilla/5.0 (Macintosh; Intel Mac OS X 10_15_7) AppleWebKit/537.36 (KHTML, like Gecko) Chrome/122.0.0.0 Safari/537.36" etag="GTvaqyIJZWpeHHOkExxT" version="24.0.7" type="device">
  <diagram id="m-wMATrf6yNa_bCxObZV" name="Page-1">
    <mxGraphModel dx="1140" dy="2318" grid="1" gridSize="1" guides="1" tooltips="1" connect="1" arrows="1" fold="0" page="1" pageScale="1" pageWidth="850" pageHeight="1100" math="0" shadow="0">
      <root>
        <mxCell id="0" />
        <mxCell id="1" parent="0" />
        <mxCell id="a4NuGPZ5ydBskTdLNqVr-12" value="" style="rounded=0;whiteSpace=wrap;html=1;fontColor=#000000;fillColor=default;" parent="1" vertex="1">
          <mxGeometry x="943" y="-550" width="933" height="48" as="geometry" />
        </mxCell>
        <mxCell id="GI5QCcvH9EwsXNVplLSH-129" value="App Manifest" style="swimlane;fontStyle=0;childLayout=stackLayout;horizontal=1;startSize=26;horizontalStack=0;resizeParent=1;resizeParentMax=0;resizeLast=0;collapsible=1;marginBottom=0;fillColor=#d5e8d4;strokeColor=#82b366;" parent="1" vertex="1">
          <mxGeometry x="1348" y="-900" width="153" height="178" as="geometry">
            <mxRectangle x="680" y="455" width="50" height="26" as="alternateBounds" />
          </mxGeometry>
        </mxCell>
        <mxCell id="bv4hWaqBqw9MEDCzKTS7-105" value="Type: App Manifest" style="text;strokeColor=#666666;fillColor=#f5f5f5;align=left;verticalAlign=top;spacingLeft=4;spacingRight=4;overflow=hidden;rotatable=0;points=[[0,0.5],[1,0.5]];portConstraint=eastwest;fontStyle=0;fontColor=#333333;" parent="GI5QCcvH9EwsXNVplLSH-129" vertex="1">
          <mxGeometry y="26" width="153" height="26" as="geometry" />
        </mxCell>
        <mxCell id="GI5QCcvH9EwsXNVplLSH-130" value="Name (unique)" style="text;align=left;verticalAlign=top;spacingLeft=4;spacingRight=4;overflow=hidden;rotatable=0;points=[[0,0.5],[1,0.5]];portConstraint=eastwest;fontStyle=4" parent="GI5QCcvH9EwsXNVplLSH-129" vertex="1">
          <mxGeometry y="52" width="153" height="26" as="geometry" />
        </mxCell>
        <mxCell id="GI5QCcvH9EwsXNVplLSH-131" value="Version" style="text;strokeColor=none;fillColor=none;align=left;verticalAlign=top;spacingLeft=4;spacingRight=4;overflow=hidden;rotatable=0;points=[[0,0.5],[1,0.5]];portConstraint=eastwest;" parent="GI5QCcvH9EwsXNVplLSH-129" vertex="1">
          <mxGeometry y="78" width="153" height="26" as="geometry" />
        </mxCell>
        <mxCell id="GI5QCcvH9EwsXNVplLSH-132" value="OSs (list)" style="text;strokeColor=none;fillColor=none;align=left;verticalAlign=top;spacingLeft=4;spacingRight=4;overflow=hidden;rotatable=0;points=[[0,0.5],[1,0.5]];portConstraint=eastwest;" parent="GI5QCcvH9EwsXNVplLSH-129" vertex="1">
          <mxGeometry y="104" width="153" height="26" as="geometry" />
        </mxCell>
        <mxCell id="bv4hWaqBqw9MEDCzKTS7-52" value="Reference Values (list)" style="text;strokeColor=none;fillColor=none;align=left;verticalAlign=top;spacingLeft=4;spacingRight=4;overflow=hidden;rotatable=0;points=[[0,0.5],[1,0.5]];portConstraint=eastwest;" parent="GI5QCcvH9EwsXNVplLSH-129" vertex="1">
          <mxGeometry y="130" width="153" height="26" as="geometry" />
        </mxCell>
        <mxCell id="RXLIFEGcNu4bPyWQ7Plb-17" value="..." style="text;strokeColor=none;fillColor=none;align=left;verticalAlign=top;spacingLeft=4;spacingRight=4;overflow=hidden;rotatable=0;points=[[0,0.5],[1,0.5]];portConstraint=eastwest;fontStyle=0;" parent="GI5QCcvH9EwsXNVplLSH-129" vertex="1">
          <mxGeometry y="156" width="153" height="22" as="geometry" />
        </mxCell>
        <mxCell id="bv4hWaqBqw9MEDCzKTS7-1" value="App Description" style="swimlane;fontStyle=0;childLayout=stackLayout;horizontal=1;startSize=26;horizontalStack=0;resizeParent=1;resizeParentMax=0;resizeLast=0;collapsible=1;marginBottom=0;fillColor=#dae8fc;strokeColor=#6c8ebf;" parent="1" vertex="1">
          <mxGeometry x="1140" y="-900" width="160" height="126" as="geometry">
            <mxRectangle x="680" y="455" width="50" height="26" as="alternateBounds" />
          </mxGeometry>
        </mxCell>
        <mxCell id="bv4hWaqBqw9MEDCzKTS7-3" value="Type: App Description" style="text;strokeColor=#666666;fillColor=#f5f5f5;align=left;verticalAlign=top;spacingLeft=4;spacingRight=4;overflow=hidden;rotatable=0;points=[[0,0.5],[1,0.5]];portConstraint=eastwest;fontStyle=0;fontColor=#333333;" parent="bv4hWaqBqw9MEDCzKTS7-1" vertex="1">
          <mxGeometry y="26" width="160" height="26" as="geometry" />
        </mxCell>
        <mxCell id="bv4hWaqBqw9MEDCzKTS7-212" value="Name (unique)" style="text;align=left;verticalAlign=top;spacingLeft=4;spacingRight=4;overflow=hidden;rotatable=0;points=[[0,0.5],[1,0.5]];portConstraint=eastwest;fontStyle=4" parent="bv4hWaqBqw9MEDCzKTS7-1" vertex="1">
          <mxGeometry y="52" width="160" height="26" as="geometry" />
        </mxCell>
        <mxCell id="bv4hWaqBqw9MEDCzKTS7-2" value="App Manifest" style="text;strokeColor=none;fillColor=none;align=left;verticalAlign=top;spacingLeft=4;spacingRight=4;overflow=hidden;rotatable=0;points=[[0,0.5],[1,0.5]];portConstraint=eastwest;" parent="bv4hWaqBqw9MEDCzKTS7-1" vertex="1">
          <mxGeometry y="78" width="160" height="26" as="geometry" />
        </mxCell>
        <mxCell id="RXLIFEGcNu4bPyWQ7Plb-14" value="..." style="text;strokeColor=none;fillColor=none;align=left;verticalAlign=top;spacingLeft=4;spacingRight=4;overflow=hidden;rotatable=0;points=[[0,0.5],[1,0.5]];portConstraint=eastwest;" parent="bv4hWaqBqw9MEDCzKTS7-1" vertex="1">
          <mxGeometry y="104" width="160" height="22" as="geometry" />
        </mxCell>
        <mxCell id="bv4hWaqBqw9MEDCzKTS7-6" value="Device Description" style="swimlane;fontStyle=0;childLayout=stackLayout;horizontal=1;startSize=26;horizontalStack=0;resizeParent=1;resizeParentMax=0;resizeLast=0;collapsible=1;marginBottom=0;fillColor=#dae8fc;strokeColor=#6c8ebf;" parent="1" vertex="1">
          <mxGeometry x="960" y="-800" width="150" height="178" as="geometry">
            <mxRectangle x="680" y="455" width="50" height="26" as="alternateBounds" />
          </mxGeometry>
        </mxCell>
        <mxCell id="bv4hWaqBqw9MEDCzKTS7-128" value="Type: Device Description" style="text;strokeColor=#666666;fillColor=#f5f5f5;align=left;verticalAlign=top;spacingLeft=4;spacingRight=4;overflow=hidden;rotatable=0;points=[[0,0.5],[1,0.5]];portConstraint=eastwest;fontColor=#333333;" parent="bv4hWaqBqw9MEDCzKTS7-6" vertex="1">
          <mxGeometry y="26" width="150" height="26" as="geometry" />
        </mxCell>
        <mxCell id="bv4hWaqBqw9MEDCzKTS7-9" value="FQDN (unique)" style="text;align=left;verticalAlign=top;spacingLeft=4;spacingRight=4;overflow=hidden;rotatable=0;points=[[0,0.5],[1,0.5]];portConstraint=eastwest;fontStyle=4" parent="bv4hWaqBqw9MEDCzKTS7-6" vertex="1">
          <mxGeometry y="52" width="150" height="26" as="geometry" />
        </mxCell>
        <mxCell id="bv4hWaqBqw9MEDCzKTS7-106" value="App Descriptions (list)" style="text;strokeColor=none;fillColor=none;align=left;verticalAlign=top;spacingLeft=4;spacingRight=4;overflow=hidden;rotatable=0;points=[[0,0.5],[1,0.5]];portConstraint=eastwest;" parent="bv4hWaqBqw9MEDCzKTS7-6" vertex="1">
          <mxGeometry y="78" width="150" height="26" as="geometry" />
        </mxCell>
        <mxCell id="bv4hWaqBqw9MEDCzKTS7-107" value="OS Manifest" style="text;strokeColor=none;fillColor=none;align=left;verticalAlign=top;spacingLeft=4;spacingRight=4;overflow=hidden;rotatable=0;points=[[0,0.5],[1,0.5]];portConstraint=eastwest;" parent="bv4hWaqBqw9MEDCzKTS7-6" vertex="1">
          <mxGeometry y="104" width="150" height="26" as="geometry" />
        </mxCell>
        <mxCell id="bv4hWaqBqw9MEDCzKTS7-7" value="RTM Manifest" style="text;strokeColor=none;fillColor=none;align=left;verticalAlign=top;spacingLeft=4;spacingRight=4;overflow=hidden;rotatable=0;points=[[0,0.5],[1,0.5]];portConstraint=eastwest;" parent="bv4hWaqBqw9MEDCzKTS7-6" vertex="1">
          <mxGeometry y="130" width="150" height="26" as="geometry" />
        </mxCell>
        <mxCell id="RXLIFEGcNu4bPyWQ7Plb-13" value="..." style="text;strokeColor=none;fillColor=none;align=left;verticalAlign=top;spacingLeft=4;spacingRight=4;overflow=hidden;rotatable=0;points=[[0,0.5],[1,0.5]];portConstraint=eastwest;" parent="bv4hWaqBqw9MEDCzKTS7-6" vertex="1">
          <mxGeometry y="156" width="150" height="22" as="geometry" />
        </mxCell>
        <mxCell id="bv4hWaqBqw9MEDCzKTS7-26" value="Attestation Report" style="swimlane;fontStyle=0;childLayout=stackLayout;horizontal=1;startSize=26;horizontalStack=0;resizeParent=1;resizeParentMax=0;resizeLast=0;collapsible=1;marginBottom=0;fillColor=#f8cecc;strokeColor=#b85450;" parent="1" vertex="1">
          <mxGeometry x="940" y="-1070" width="150" height="230" as="geometry">
            <mxRectangle x="880" y="120" width="50" height="26" as="alternateBounds" />
          </mxGeometry>
        </mxCell>
        <mxCell id="bv4hWaqBqw9MEDCzKTS7-127" value="Type: Attestation Report" style="text;strokeColor=#666666;fillColor=#f5f5f5;align=left;verticalAlign=top;spacingLeft=4;spacingRight=4;overflow=hidden;rotatable=0;points=[[0,0.5],[1,0.5]];portConstraint=eastwest;fontColor=#333333;" parent="bv4hWaqBqw9MEDCzKTS7-26" vertex="1">
          <mxGeometry y="26" width="150" height="26" as="geometry" />
        </mxCell>
        <mxCell id="6bmyaeacriZV80S6l06l-2" value="Version (of AR Scheme)" style="text;strokeColor=none;fillColor=none;align=left;verticalAlign=top;spacingLeft=4;spacingRight=4;overflow=hidden;rotatable=0;points=[[0,0.5],[1,0.5]];portConstraint=eastwest;" parent="bv4hWaqBqw9MEDCzKTS7-26" vertex="1">
          <mxGeometry y="52" width="150" height="26" as="geometry" />
        </mxCell>
        <mxCell id="bv4hWaqBqw9MEDCzKTS7-27" value="Measurements (list)" style="text;strokeColor=none;fillColor=none;align=left;verticalAlign=top;spacingLeft=4;spacingRight=4;overflow=hidden;rotatable=0;points=[[0,0.5],[1,0.5]];portConstraint=eastwest;" parent="bv4hWaqBqw9MEDCzKTS7-26" vertex="1">
          <mxGeometry y="78" width="150" height="26" as="geometry" />
        </mxCell>
        <mxCell id="6bmyaeacriZV80S6l06l-5" value="RTM Manifest" style="text;strokeColor=none;fillColor=none;align=left;verticalAlign=top;spacingLeft=4;spacingRight=4;overflow=hidden;rotatable=0;points=[[0,0.5],[1,0.5]];portConstraint=eastwest;" parent="bv4hWaqBqw9MEDCzKTS7-26" vertex="1">
          <mxGeometry y="104" width="150" height="26" as="geometry" />
        </mxCell>
        <mxCell id="6bmyaeacriZV80S6l06l-4" value="OS Manifest" style="text;strokeColor=none;fillColor=none;align=left;verticalAlign=top;spacingLeft=4;spacingRight=4;overflow=hidden;rotatable=0;points=[[0,0.5],[1,0.5]];portConstraint=eastwest;" parent="bv4hWaqBqw9MEDCzKTS7-26" vertex="1">
          <mxGeometry y="130" width="150" height="26" as="geometry" />
        </mxCell>
        <mxCell id="bv4hWaqBqw9MEDCzKTS7-215" value="App Manifests (list)" style="text;strokeColor=none;fillColor=none;align=left;verticalAlign=top;spacingLeft=4;spacingRight=4;overflow=hidden;rotatable=0;points=[[0,0.5],[1,0.5]];portConstraint=eastwest;" parent="bv4hWaqBqw9MEDCzKTS7-26" vertex="1">
          <mxGeometry y="156" width="150" height="26" as="geometry" />
        </mxCell>
        <mxCell id="bv4hWaqBqw9MEDCzKTS7-132" value="Device Description" style="text;strokeColor=none;fillColor=none;align=left;verticalAlign=top;spacingLeft=4;spacingRight=4;overflow=hidden;rotatable=0;points=[[0,0.5],[1,0.5]];portConstraint=eastwest;" parent="bv4hWaqBqw9MEDCzKTS7-26" vertex="1">
          <mxGeometry y="182" width="150" height="26" as="geometry" />
        </mxCell>
        <mxCell id="RXLIFEGcNu4bPyWQ7Plb-2" value="..." style="text;strokeColor=none;fillColor=none;align=left;verticalAlign=top;spacingLeft=4;spacingRight=4;overflow=hidden;rotatable=0;points=[[0,0.5],[1,0.5]];portConstraint=eastwest;" parent="bv4hWaqBqw9MEDCzKTS7-26" vertex="1">
          <mxGeometry y="208" width="150" height="22" as="geometry" />
        </mxCell>
        <mxCell id="bv4hWaqBqw9MEDCzKTS7-64" style="edgeStyle=orthogonalEdgeStyle;rounded=0;orthogonalLoop=1;jettySize=auto;html=1;dashed=1;exitX=0.999;exitY=0.46;exitDx=0;exitDy=0;entryX=0;entryY=0.5;entryDx=0;entryDy=0;exitPerimeter=0;" parent="1" source="bv4hWaqBqw9MEDCzKTS7-2" target="GI5QCcvH9EwsXNVplLSH-130" edge="1">
          <mxGeometry relative="1" as="geometry">
            <Array as="points">
              <mxPoint x="1320" y="-810" />
              <mxPoint x="1320" y="-835" />
            </Array>
            <mxPoint x="1349" y="-606" as="sourcePoint" />
            <mxPoint x="1388" y="-795.5" as="targetPoint" />
          </mxGeometry>
        </mxCell>
        <mxCell id="bv4hWaqBqw9MEDCzKTS7-76" value="Software Reference Value" style="swimlane;fontStyle=0;childLayout=stackLayout;horizontal=1;startSize=26;horizontalStack=0;resizeParent=1;resizeParentMax=0;resizeLast=0;collapsible=1;marginBottom=0;fillColor=#d5e8d4;strokeColor=#82b366;" parent="1" vertex="1">
          <mxGeometry x="1348" y="-690.25" width="160" height="104" as="geometry">
            <mxRectangle x="680" y="455" width="50" height="26" as="alternateBounds" />
          </mxGeometry>
        </mxCell>
        <mxCell id="bv4hWaqBqw9MEDCzKTS7-77" value="Type: SW Reference Value" style="text;strokeColor=#666666;fillColor=#f5f5f5;align=left;verticalAlign=top;spacingLeft=4;spacingRight=4;overflow=hidden;rotatable=0;points=[[0,0.5],[1,0.5]];portConstraint=eastwest;fontColor=#333333;" parent="bv4hWaqBqw9MEDCzKTS7-76" vertex="1">
          <mxGeometry y="26" width="160" height="26" as="geometry" />
        </mxCell>
        <mxCell id="bv4hWaqBqw9MEDCzKTS7-78" value="Name" style="text;strokeColor=none;fillColor=none;align=left;verticalAlign=top;spacingLeft=4;spacingRight=4;overflow=hidden;rotatable=0;points=[[0,0.5],[1,0.5]];portConstraint=eastwest;" parent="bv4hWaqBqw9MEDCzKTS7-76" vertex="1">
          <mxGeometry y="52" width="160" height="26" as="geometry" />
        </mxCell>
        <mxCell id="bv4hWaqBqw9MEDCzKTS7-79" value="SHA-512" style="text;strokeColor=none;fillColor=none;align=left;verticalAlign=top;spacingLeft=4;spacingRight=4;overflow=hidden;rotatable=0;points=[[0,0.5],[1,0.5]];portConstraint=eastwest;" parent="bv4hWaqBqw9MEDCzKTS7-76" vertex="1">
          <mxGeometry y="78" width="160" height="26" as="geometry" />
        </mxCell>
        <mxCell id="bv4hWaqBqw9MEDCzKTS7-83" value="TPM Measurement" style="swimlane;fontStyle=0;childLayout=stackLayout;horizontal=1;startSize=26;horizontalStack=0;resizeParent=1;resizeParentMax=0;resizeLast=0;collapsible=1;marginBottom=0;fillColor=#f8cecc;strokeColor=#b85450;" parent="1" vertex="1">
          <mxGeometry x="1910" y="-1056" width="150" height="134" as="geometry">
            <mxRectangle x="680" y="455" width="50" height="26" as="alternateBounds" />
          </mxGeometry>
        </mxCell>
        <mxCell id="bv4hWaqBqw9MEDCzKTS7-84" value="Type: TPM Measurement" style="text;strokeColor=#666666;fillColor=#f5f5f5;align=left;verticalAlign=top;spacingLeft=4;spacingRight=4;overflow=hidden;rotatable=0;points=[[0,0.5],[1,0.5]];portConstraint=eastwest;fontColor=#333333;" parent="bv4hWaqBqw9MEDCzKTS7-83" vertex="1">
          <mxGeometry y="26" width="150" height="26" as="geometry" />
        </mxCell>
        <mxCell id="bv4hWaqBqw9MEDCzKTS7-235" value="TPM Quote [Nonce, ...]" style="text;align=left;verticalAlign=top;spacingLeft=4;spacingRight=4;overflow=hidden;rotatable=0;points=[[0,0.5],[1,0.5]];portConstraint=eastwest;fillColor=#ffe6cc;strokeColor=#d79b00;" parent="bv4hWaqBqw9MEDCzKTS7-83" vertex="1">
          <mxGeometry y="52" width="150" height="26" as="geometry" />
        </mxCell>
        <mxCell id="8SOkYBMObIGiR1r_MHa4-14" value="Hash Chain (list)" style="text;align=left;verticalAlign=top;spacingLeft=4;spacingRight=4;overflow=hidden;rotatable=0;points=[[0,0.5],[1,0.5]];portConstraint=eastwest;" parent="bv4hWaqBqw9MEDCzKTS7-83" vertex="1">
          <mxGeometry y="78" width="150" height="26" as="geometry" />
        </mxCell>
        <mxCell id="XnzWA3qZGSjCEpPazUxT-3" value="Certificate Chain" style="text;align=left;verticalAlign=top;spacingLeft=4;spacingRight=4;overflow=hidden;rotatable=0;points=[[0,0.5],[1,0.5]];portConstraint=eastwest;" parent="bv4hWaqBqw9MEDCzKTS7-83" vertex="1">
          <mxGeometry y="104" width="150" height="30" as="geometry" />
        </mxCell>
        <mxCell id="bv4hWaqBqw9MEDCzKTS7-85" style="edgeStyle=orthogonalEdgeStyle;rounded=0;orthogonalLoop=1;jettySize=auto;html=1;entryX=0.488;entryY=0.003;entryDx=0;entryDy=0;entryPerimeter=0;" parent="1" source="bv4hWaqBqw9MEDCzKTS7-27" target="bv4hWaqBqw9MEDCzKTS7-83" edge="1">
          <mxGeometry relative="1" as="geometry">
            <Array as="points">
              <mxPoint x="1127" y="-979" />
              <mxPoint x="1127" y="-1070" />
              <mxPoint x="1983" y="-1070" />
            </Array>
            <mxPoint x="1110" y="-1022" as="sourcePoint" />
            <mxPoint x="1390" y="-1070" as="targetPoint" />
          </mxGeometry>
        </mxCell>
        <mxCell id="bv4hWaqBqw9MEDCzKTS7-86" value="Software Measurement" style="swimlane;fontStyle=0;childLayout=stackLayout;horizontal=1;startSize=26;horizontalStack=0;resizeParent=1;resizeParentMax=0;resizeLast=0;collapsible=1;marginBottom=0;fillColor=#f8cecc;strokeColor=#b85450;" parent="1" vertex="1">
          <mxGeometry x="1140" y="-1055" width="145" height="104" as="geometry">
            <mxRectangle x="680" y="455" width="50" height="26" as="alternateBounds" />
          </mxGeometry>
        </mxCell>
        <mxCell id="bv4hWaqBqw9MEDCzKTS7-87" value="Type: SW Measurement" style="text;strokeColor=#666666;fillColor=#f5f5f5;align=left;verticalAlign=top;spacingLeft=4;spacingRight=4;overflow=hidden;rotatable=0;points=[[0,0.5],[1,0.5]];portConstraint=eastwest;fontColor=#333333;" parent="bv4hWaqBqw9MEDCzKTS7-86" vertex="1">
          <mxGeometry y="26" width="145" height="26" as="geometry" />
        </mxCell>
        <mxCell id="bv4hWaqBqw9MEDCzKTS7-237" value="Name" style="text;align=left;verticalAlign=top;spacingLeft=4;spacingRight=4;overflow=hidden;rotatable=0;points=[[0,0.5],[1,0.5]];portConstraint=eastwest;" parent="bv4hWaqBqw9MEDCzKTS7-86" vertex="1">
          <mxGeometry y="52" width="145" height="26" as="geometry" />
        </mxCell>
        <mxCell id="bv4hWaqBqw9MEDCzKTS7-238" value="SHA-512" style="text;align=left;verticalAlign=top;spacingLeft=4;spacingRight=4;overflow=hidden;rotatable=0;points=[[0,0.5],[1,0.5]];portConstraint=eastwest;" parent="bv4hWaqBqw9MEDCzKTS7-86" vertex="1">
          <mxGeometry y="78" width="145" height="26" as="geometry" />
        </mxCell>
        <mxCell id="bv4hWaqBqw9MEDCzKTS7-94" value="RTM Manifest" style="swimlane;fontStyle=0;childLayout=stackLayout;horizontal=1;startSize=26;horizontalStack=0;resizeParent=1;resizeParentMax=0;resizeLast=0;collapsible=1;marginBottom=0;fillColor=#d5e8d4;strokeColor=#82b366;" parent="1" vertex="1">
          <mxGeometry x="1720" y="-900" width="153" height="152" as="geometry">
            <mxRectangle x="680" y="455" width="50" height="26" as="alternateBounds" />
          </mxGeometry>
        </mxCell>
        <mxCell id="bv4hWaqBqw9MEDCzKTS7-96" value="Type: RTM Manifest" style="text;strokeColor=#666666;fillColor=#f5f5f5;align=left;verticalAlign=top;spacingLeft=4;spacingRight=4;overflow=hidden;rotatable=0;points=[[0,0.5],[1,0.5]];portConstraint=eastwest;fontColor=#333333;" parent="bv4hWaqBqw9MEDCzKTS7-94" vertex="1">
          <mxGeometry y="26" width="153" height="26" as="geometry" />
        </mxCell>
        <mxCell id="bv4hWaqBqw9MEDCzKTS7-98" value="Name (unique)" style="text;align=left;verticalAlign=top;spacingLeft=4;spacingRight=4;overflow=hidden;rotatable=0;points=[[0,0.5],[1,0.5]];portConstraint=eastwest;fontStyle=4" parent="bv4hWaqBqw9MEDCzKTS7-94" vertex="1">
          <mxGeometry y="52" width="153" height="26" as="geometry" />
        </mxCell>
        <mxCell id="bv4hWaqBqw9MEDCzKTS7-232" value="Version" style="text;strokeColor=none;fillColor=none;align=left;verticalAlign=top;spacingLeft=4;spacingRight=4;overflow=hidden;rotatable=0;points=[[0,0.5],[1,0.5]];portConstraint=eastwest;" parent="bv4hWaqBqw9MEDCzKTS7-94" vertex="1">
          <mxGeometry y="78" width="153" height="26" as="geometry" />
        </mxCell>
        <mxCell id="bv4hWaqBqw9MEDCzKTS7-229" value="Reference Values (list)" style="text;strokeColor=none;fillColor=none;align=left;verticalAlign=top;spacingLeft=4;spacingRight=4;overflow=hidden;rotatable=0;points=[[0,0.5],[1,0.5]];portConstraint=eastwest;" parent="bv4hWaqBqw9MEDCzKTS7-94" vertex="1">
          <mxGeometry y="104" width="153" height="26" as="geometry" />
        </mxCell>
        <mxCell id="RXLIFEGcNu4bPyWQ7Plb-15" value="..." style="text;strokeColor=none;fillColor=none;align=left;verticalAlign=top;spacingLeft=4;spacingRight=4;overflow=hidden;rotatable=0;points=[[0,0.5],[1,0.5]];portConstraint=eastwest;" parent="bv4hWaqBqw9MEDCzKTS7-94" vertex="1">
          <mxGeometry y="130" width="153" height="22" as="geometry" />
        </mxCell>
        <mxCell id="bv4hWaqBqw9MEDCzKTS7-99" value="OS Manifest" style="swimlane;fontStyle=0;childLayout=stackLayout;horizontal=1;startSize=26;horizontalStack=0;resizeParent=1;resizeParentMax=0;resizeLast=0;collapsible=1;marginBottom=0;fillColor=#d5e8d4;strokeColor=#82b366;" parent="1" vertex="1">
          <mxGeometry x="1531.5" y="-900" width="161" height="178" as="geometry">
            <mxRectangle x="680" y="455" width="50" height="26" as="alternateBounds" />
          </mxGeometry>
        </mxCell>
        <mxCell id="bv4hWaqBqw9MEDCzKTS7-101" value="Type: OS Manifest" style="text;strokeColor=#666666;fillColor=#f5f5f5;align=left;verticalAlign=top;spacingLeft=4;spacingRight=4;overflow=hidden;rotatable=0;points=[[0,0.5],[1,0.5]];portConstraint=eastwest;fontColor=#333333;" parent="bv4hWaqBqw9MEDCzKTS7-99" vertex="1">
          <mxGeometry y="26" width="161" height="26" as="geometry" />
        </mxCell>
        <mxCell id="bv4hWaqBqw9MEDCzKTS7-117" value="Name (unique)" style="text;align=left;verticalAlign=top;spacingLeft=4;spacingRight=4;overflow=hidden;rotatable=0;points=[[0,0.5],[1,0.5]];portConstraint=eastwest;fontStyle=4" parent="bv4hWaqBqw9MEDCzKTS7-99" vertex="1">
          <mxGeometry y="52" width="161" height="26" as="geometry" />
        </mxCell>
        <mxCell id="bv4hWaqBqw9MEDCzKTS7-104" value="Version" style="text;strokeColor=none;fillColor=none;align=left;verticalAlign=top;spacingLeft=4;spacingRight=4;overflow=hidden;rotatable=0;points=[[0,0.5],[1,0.5]];portConstraint=eastwest;" parent="bv4hWaqBqw9MEDCzKTS7-99" vertex="1">
          <mxGeometry y="78" width="161" height="26" as="geometry" />
        </mxCell>
        <mxCell id="bv4hWaqBqw9MEDCzKTS7-214" value="RTMs (list)" style="text;strokeColor=none;fillColor=none;align=left;verticalAlign=top;spacingLeft=4;spacingRight=4;overflow=hidden;rotatable=0;points=[[0,0.5],[1,0.5]];portConstraint=eastwest;" parent="bv4hWaqBqw9MEDCzKTS7-99" vertex="1">
          <mxGeometry y="104" width="161" height="26" as="geometry" />
        </mxCell>
        <mxCell id="bv4hWaqBqw9MEDCzKTS7-225" value="Reference Values (list)" style="text;strokeColor=none;fillColor=none;align=left;verticalAlign=top;spacingLeft=4;spacingRight=4;overflow=hidden;rotatable=0;points=[[0,0.5],[1,0.5]];portConstraint=eastwest;" parent="bv4hWaqBqw9MEDCzKTS7-99" vertex="1">
          <mxGeometry y="130" width="161" height="26" as="geometry" />
        </mxCell>
        <mxCell id="RXLIFEGcNu4bPyWQ7Plb-16" value="..." style="text;strokeColor=none;fillColor=none;align=left;verticalAlign=top;spacingLeft=4;spacingRight=4;overflow=hidden;rotatable=0;points=[[0,0.5],[1,0.5]];portConstraint=eastwest;" parent="bv4hWaqBqw9MEDCzKTS7-99" vertex="1">
          <mxGeometry y="156" width="161" height="22" as="geometry" />
        </mxCell>
        <mxCell id="bv4hWaqBqw9MEDCzKTS7-114" style="edgeStyle=orthogonalEdgeStyle;rounded=0;orthogonalLoop=1;jettySize=auto;html=1;fillColor=#ffe6cc;dashed=1;exitX=1;exitY=0.5;exitDx=0;exitDy=0;" parent="1" source="GI5QCcvH9EwsXNVplLSH-132" target="bv4hWaqBqw9MEDCzKTS7-117" edge="1">
          <mxGeometry relative="1" as="geometry">
            <Array as="points">
              <mxPoint x="1520" y="-783" />
              <mxPoint x="1520" y="-834" />
            </Array>
            <mxPoint x="1512" y="-753" as="sourcePoint" />
            <mxPoint x="1549" y="-834" as="targetPoint" />
          </mxGeometry>
        </mxCell>
        <mxCell id="8SOkYBMObIGiR1r_MHa4-2" value="&lt;font style=&quot;font-size: 12px&quot;&gt;Following block&lt;br&gt;directly integrated&lt;/font&gt;" style="endArrow=classic;html=1;align=left;fontStyle=4" parent="1" edge="1">
          <mxGeometry x="1" y="10" width="50" height="50" relative="1" as="geometry">
            <mxPoint x="1137" y="-523.42" as="sourcePoint" />
            <mxPoint x="1169" y="-523.42" as="targetPoint" />
            <mxPoint x="9" y="10" as="offset" />
          </mxGeometry>
        </mxCell>
        <mxCell id="8SOkYBMObIGiR1r_MHa4-3" value="" style="endArrow=classic;dashed=1;html=1;dashPattern=1 3;strokeWidth=1;endFill=1;align=left;fontStyle=4" parent="1" edge="1">
          <mxGeometry x="1" y="67" width="50" height="50" relative="1" as="geometry">
            <mxPoint x="948" y="-523" as="sourcePoint" />
            <mxPoint x="982" y="-523" as="targetPoint" />
            <mxPoint x="67" y="67" as="offset" />
          </mxGeometry>
        </mxCell>
        <mxCell id="8SOkYBMObIGiR1r_MHa4-15" value="Hash Chain" style="swimlane;fontStyle=0;childLayout=stackLayout;horizontal=1;startSize=26;horizontalStack=0;resizeParent=1;resizeParentMax=0;resizeLast=0;collapsible=1;marginBottom=0;fillColor=#f8cecc;strokeColor=#b85450;" parent="1" vertex="1">
          <mxGeometry x="2084" y="-1058" width="106" height="110" as="geometry">
            <mxRectangle x="680" y="455" width="50" height="26" as="alternateBounds" />
          </mxGeometry>
        </mxCell>
        <mxCell id="8SOkYBMObIGiR1r_MHa4-16" value="Type: Hash Chain" style="text;strokeColor=#666666;fillColor=#f5f5f5;align=left;verticalAlign=top;spacingLeft=4;spacingRight=4;overflow=hidden;rotatable=0;points=[[0,0.5],[1,0.5]];portConstraint=eastwest;fontColor=#333333;" parent="8SOkYBMObIGiR1r_MHa4-15" vertex="1">
          <mxGeometry y="26" width="106" height="26" as="geometry" />
        </mxCell>
        <mxCell id="8SOkYBMObIGiR1r_MHa4-17" value="PCR (int)" style="text;align=left;verticalAlign=top;spacingLeft=4;spacingRight=4;overflow=hidden;rotatable=0;points=[[0,0.5],[1,0.5]];portConstraint=eastwest;" parent="8SOkYBMObIGiR1r_MHa4-15" vertex="1">
          <mxGeometry y="52" width="106" height="26" as="geometry" />
        </mxCell>
        <mxCell id="8SOkYBMObIGiR1r_MHa4-18" value="SHA256 (list)" style="text;align=left;verticalAlign=top;spacingLeft=4;spacingRight=4;overflow=hidden;rotatable=0;points=[[0,0.5],[1,0.5]];portConstraint=eastwest;" parent="8SOkYBMObIGiR1r_MHa4-15" vertex="1">
          <mxGeometry y="78" width="106" height="32" as="geometry" />
        </mxCell>
        <mxCell id="LQJfOHzfo69wPiyFH5aA-2" style="edgeStyle=orthogonalEdgeStyle;rounded=0;orthogonalLoop=1;jettySize=auto;html=1;" parent="1" source="6bmyaeacriZV80S6l06l-5" target="bv4hWaqBqw9MEDCzKTS7-94" edge="1">
          <mxGeometry relative="1" as="geometry">
            <Array as="points">
              <mxPoint x="1110" y="-950" />
              <mxPoint x="1110" y="-913" />
              <mxPoint x="1797" y="-913" />
            </Array>
            <mxPoint x="1120" y="-1000" as="sourcePoint" />
            <mxPoint x="1874" y="-854" as="targetPoint" />
          </mxGeometry>
        </mxCell>
        <mxCell id="LQJfOHzfo69wPiyFH5aA-3" style="edgeStyle=orthogonalEdgeStyle;rounded=0;orthogonalLoop=1;jettySize=auto;html=1;" parent="1" source="6bmyaeacriZV80S6l06l-4" target="bv4hWaqBqw9MEDCzKTS7-99" edge="1">
          <mxGeometry relative="1" as="geometry">
            <Array as="points">
              <mxPoint x="1110" y="-930" />
              <mxPoint x="1110" y="-913" />
              <mxPoint x="1612" y="-913" />
            </Array>
            <mxPoint x="1110" y="-978" as="sourcePoint" />
            <mxPoint x="1674" y="-850" as="targetPoint" />
          </mxGeometry>
        </mxCell>
        <mxCell id="LQJfOHzfo69wPiyFH5aA-4" style="edgeStyle=orthogonalEdgeStyle;rounded=0;orthogonalLoop=1;jettySize=auto;html=1;" parent="1" source="bv4hWaqBqw9MEDCzKTS7-215" target="GI5QCcvH9EwsXNVplLSH-129" edge="1">
          <mxGeometry relative="1" as="geometry">
            <Array as="points">
              <mxPoint x="1110" y="-901" />
              <mxPoint x="1110" y="-913" />
              <mxPoint x="1425" y="-913" />
            </Array>
            <mxPoint x="1110" y="-946" as="sourcePoint" />
            <mxPoint x="1474" y="-868" as="targetPoint" />
          </mxGeometry>
        </mxCell>
        <mxCell id="LQJfOHzfo69wPiyFH5aA-5" style="edgeStyle=orthogonalEdgeStyle;rounded=0;orthogonalLoop=1;jettySize=auto;html=1;dashed=1;exitX=1;exitY=0.5;exitDx=0;exitDy=0;entryX=0;entryY=0.5;entryDx=0;entryDy=0;" parent="1" source="bv4hWaqBqw9MEDCzKTS7-7" target="bv4hWaqBqw9MEDCzKTS7-98" edge="1">
          <mxGeometry relative="1" as="geometry">
            <Array as="points">
              <mxPoint x="1130" y="-657" />
              <mxPoint x="1130" y="-710" />
              <mxPoint x="1710" y="-710" />
              <mxPoint x="1710" y="-835" />
            </Array>
            <mxPoint x="1107" y="-723" as="sourcePoint" />
            <mxPoint x="1546" y="-794" as="targetPoint" />
          </mxGeometry>
        </mxCell>
        <mxCell id="LQJfOHzfo69wPiyFH5aA-9" style="edgeStyle=orthogonalEdgeStyle;rounded=0;orthogonalLoop=1;jettySize=auto;html=1;entryX=0.5;entryY=0;entryDx=0;entryDy=0;" parent="1" source="bv4hWaqBqw9MEDCzKTS7-27" target="bv4hWaqBqw9MEDCzKTS7-86" edge="1">
          <mxGeometry relative="1" as="geometry">
            <Array as="points">
              <mxPoint x="1127" y="-979" />
              <mxPoint x="1127" y="-1070" />
              <mxPoint x="1213" y="-1070" />
            </Array>
            <mxPoint x="1163" y="-1028.5" as="sourcePoint" />
            <mxPoint x="1460" y="-1050" as="targetPoint" />
          </mxGeometry>
        </mxCell>
        <mxCell id="nPjp7CChEmeKWuiOlpWx-34" style="edgeStyle=orthogonalEdgeStyle;rounded=0;orthogonalLoop=1;jettySize=auto;html=1;startArrow=none;startFill=0;endArrow=classic;endFill=1;dashed=1;exitX=1;exitY=0.5;exitDx=0;exitDy=0;entryX=0;entryY=0.5;entryDx=0;entryDy=0;" parent="1" source="bv4hWaqBqw9MEDCzKTS7-214" target="bv4hWaqBqw9MEDCzKTS7-98" edge="1">
          <mxGeometry relative="1" as="geometry">
            <mxPoint x="1696.5" y="-724" as="sourcePoint" />
            <mxPoint x="1737" y="-837" as="targetPoint" />
            <Array as="points">
              <mxPoint x="1710" y="-783" />
              <mxPoint x="1710" y="-835" />
            </Array>
          </mxGeometry>
        </mxCell>
        <mxCell id="nPjp7CChEmeKWuiOlpWx-36" style="edgeStyle=orthogonalEdgeStyle;rounded=0;orthogonalLoop=1;jettySize=auto;html=1;startArrow=none;startFill=0;endArrow=classic;endFill=1;dashed=1;exitX=1;exitY=0.5;exitDx=0;exitDy=0;entryX=0;entryY=0.5;entryDx=0;entryDy=0;" parent="1" source="bv4hWaqBqw9MEDCzKTS7-107" target="bv4hWaqBqw9MEDCzKTS7-117" edge="1">
          <mxGeometry relative="1" as="geometry">
            <mxPoint x="1115" y="-744" as="sourcePoint" />
            <mxPoint x="1743" y="-796" as="targetPoint" />
            <Array as="points">
              <mxPoint x="1125" y="-683" />
              <mxPoint x="1125" y="-715" />
              <mxPoint x="1520" y="-715" />
              <mxPoint x="1520" y="-835" />
            </Array>
          </mxGeometry>
        </mxCell>
        <mxCell id="nPjp7CChEmeKWuiOlpWx-56" value="&lt;span style=&quot;color: rgb(0, 0, 0); font-family: helvetica; font-size: 12px; font-style: normal; font-weight: 400; letter-spacing: normal; text-align: left; text-indent: 0px; text-transform: none; word-spacing: 0px; background-color: rgb(255, 255, 255); display: inline; float: none;&quot;&gt;Link to the following block&lt;/span&gt;&lt;br style=&quot;color: rgb(0, 0, 0); font-family: helvetica; font-size: 12px; font-style: normal; font-weight: 400; letter-spacing: normal; text-align: left; text-indent: 0px; text-transform: none; word-spacing: 0px; background-color: rgb(255, 255, 255);&quot;&gt;&lt;span style=&quot;color: rgb(0, 0, 0); font-family: helvetica; font-size: 12px; font-style: normal; font-weight: 400; letter-spacing: normal; text-align: left; text-indent: 0px; text-transform: none; word-spacing: 0px; background-color: rgb(255, 255, 255); display: inline; float: none;&quot;&gt;through unique&amp;nbsp;&lt;/span&gt;&lt;span style=&quot;color: rgb(0, 0, 0); font-family: helvetica; font-size: 12px; font-style: normal; font-weight: 400; letter-spacing: normal; text-align: left; text-indent: 0px; text-transform: none; word-spacing: 0px; background-color: rgb(255, 255, 255); display: inline; float: none;&quot;&gt;name&lt;/span&gt;" style="text;whiteSpace=wrap;html=1;fontStyle=4" parent="1" vertex="1">
          <mxGeometry x="986" y="-543" width="139" height="39.25" as="geometry" />
        </mxCell>
        <mxCell id="lIOMEyTwm9s5aMlL50Ii-7" style="edgeStyle=orthogonalEdgeStyle;rounded=0;orthogonalLoop=1;jettySize=auto;html=1;entryX=0.5;entryY=0;entryDx=0;entryDy=0;exitX=1;exitY=0.5;exitDx=0;exitDy=0;" parent="1" source="bv4hWaqBqw9MEDCzKTS7-229" target="bv4hWaqBqw9MEDCzKTS7-57" edge="1">
          <mxGeometry relative="1" as="geometry">
            <Array as="points">
              <mxPoint x="1880" y="-783" />
              <mxPoint x="1880" y="-700" />
              <mxPoint x="1791" y="-700" />
            </Array>
            <mxPoint x="1793" y="-534" as="targetPoint" />
          </mxGeometry>
        </mxCell>
        <mxCell id="bv4hWaqBqw9MEDCzKTS7-35" style="edgeStyle=orthogonalEdgeStyle;rounded=0;orthogonalLoop=1;jettySize=auto;html=1;exitX=0;exitY=0.5;exitDx=0;exitDy=0;entryX=0;entryY=0.5;entryDx=0;entryDy=0;" parent="1" source="bv4hWaqBqw9MEDCzKTS7-132" target="bv4hWaqBqw9MEDCzKTS7-9" edge="1">
          <mxGeometry relative="1" as="geometry">
            <Array as="points">
              <mxPoint x="930" y="-875" />
              <mxPoint x="930" y="-735" />
            </Array>
            <mxPoint x="965" y="-891.9714285714286" as="sourcePoint" />
            <mxPoint x="965" y="-775" as="targetPoint" />
          </mxGeometry>
        </mxCell>
        <mxCell id="RXLIFEGcNu4bPyWQ7Plb-3" value="SNP Measurement" style="swimlane;fontStyle=0;childLayout=stackLayout;horizontal=1;startSize=26;horizontalStack=0;resizeParent=1;resizeParentMax=0;resizeLast=0;collapsible=1;marginBottom=0;fillColor=#f8cecc;strokeColor=#b85450;" parent="1" vertex="1">
          <mxGeometry x="1445" y="-1055" width="150" height="108" as="geometry">
            <mxRectangle x="680" y="455" width="50" height="26" as="alternateBounds" />
          </mxGeometry>
        </mxCell>
        <mxCell id="RXLIFEGcNu4bPyWQ7Plb-4" value="Type: SNP Measurement" style="text;strokeColor=#666666;fillColor=#f5f5f5;align=left;verticalAlign=top;spacingLeft=4;spacingRight=4;overflow=hidden;rotatable=0;points=[[0,0.5],[1,0.5]];portConstraint=eastwest;fontColor=#333333;" parent="RXLIFEGcNu4bPyWQ7Plb-3" vertex="1">
          <mxGeometry y="26" width="150" height="26" as="geometry" />
        </mxCell>
        <mxCell id="RXLIFEGcNu4bPyWQ7Plb-5" value="SNP Report [Nonce, ...]" style="text;align=left;verticalAlign=top;spacingLeft=4;spacingRight=4;overflow=hidden;rotatable=0;points=[[0,0.5],[1,0.5]];portConstraint=eastwest;fillColor=#ffe6cc;strokeColor=#d79b00;" parent="RXLIFEGcNu4bPyWQ7Plb-3" vertex="1">
          <mxGeometry y="52" width="150" height="26" as="geometry" />
        </mxCell>
        <mxCell id="RXLIFEGcNu4bPyWQ7Plb-8" value="Certificate Chain" style="text;align=left;verticalAlign=top;spacingLeft=4;spacingRight=4;overflow=hidden;rotatable=0;points=[[0,0.5],[1,0.5]];portConstraint=eastwest;" parent="RXLIFEGcNu4bPyWQ7Plb-3" vertex="1">
          <mxGeometry y="78" width="150" height="30" as="geometry" />
        </mxCell>
        <mxCell id="RXLIFEGcNu4bPyWQ7Plb-9" value="IAS Measurement" style="swimlane;fontStyle=0;childLayout=stackLayout;horizontal=1;startSize=26;horizontalStack=0;resizeParent=1;resizeParentMax=0;resizeLast=0;collapsible=1;marginBottom=0;fillColor=#f8cecc;strokeColor=#b85450;" parent="1" vertex="1">
          <mxGeometry x="1290" y="-1055" width="150" height="108" as="geometry">
            <mxRectangle x="680" y="455" width="50" height="26" as="alternateBounds" />
          </mxGeometry>
        </mxCell>
        <mxCell id="RXLIFEGcNu4bPyWQ7Plb-10" value="Type: IAS Measurement" style="text;strokeColor=#666666;fillColor=#f5f5f5;align=left;verticalAlign=top;spacingLeft=4;spacingRight=4;overflow=hidden;rotatable=0;points=[[0,0.5],[1,0.5]];portConstraint=eastwest;fontColor=#333333;" parent="RXLIFEGcNu4bPyWQ7Plb-9" vertex="1">
          <mxGeometry y="26" width="150" height="26" as="geometry" />
        </mxCell>
        <mxCell id="RXLIFEGcNu4bPyWQ7Plb-11" value="IAT [Nonce, ...]" style="text;align=left;verticalAlign=top;spacingLeft=4;spacingRight=4;overflow=hidden;rotatable=0;points=[[0,0.5],[1,0.5]];portConstraint=eastwest;fillColor=#ffe6cc;strokeColor=#d79b00;" parent="RXLIFEGcNu4bPyWQ7Plb-9" vertex="1">
          <mxGeometry y="52" width="150" height="26" as="geometry" />
        </mxCell>
        <mxCell id="RXLIFEGcNu4bPyWQ7Plb-12" value="Certificate Chain" style="text;align=left;verticalAlign=top;spacingLeft=4;spacingRight=4;overflow=hidden;rotatable=0;points=[[0,0.5],[1,0.5]];portConstraint=eastwest;" parent="RXLIFEGcNu4bPyWQ7Plb-9" vertex="1">
          <mxGeometry y="78" width="150" height="30" as="geometry" />
        </mxCell>
        <mxCell id="RXLIFEGcNu4bPyWQ7Plb-22" value="" style="edgeStyle=segmentEdgeStyle;endArrow=classic;html=1;rounded=0;fontColor=#CC0000;entryX=0.5;entryY=0;entryDx=0;entryDy=0;" parent="1" source="bv4hWaqBqw9MEDCzKTS7-27" target="RXLIFEGcNu4bPyWQ7Plb-9" edge="1">
          <mxGeometry width="50" height="50" relative="1" as="geometry">
            <mxPoint x="1290" y="-1040" as="sourcePoint" />
            <mxPoint x="1340" y="-1090" as="targetPoint" />
            <Array as="points">
              <mxPoint x="1127" y="-979" />
              <mxPoint x="1127" y="-1070" />
              <mxPoint x="1365" y="-1070" />
            </Array>
          </mxGeometry>
        </mxCell>
        <mxCell id="E4-jLAxVd33f71r4XFcZ-2" value="SNP Reference Value" style="swimlane;fontStyle=0;childLayout=stackLayout;horizontal=1;startSize=26;horizontalStack=0;resizeParent=1;resizeParentMax=0;resizeLast=0;collapsible=1;marginBottom=0;fillColor=#d5e8d4;strokeColor=#82b366;" parent="1" vertex="1">
          <mxGeometry x="1532.5" y="-690.25" width="160" height="130" as="geometry">
            <mxRectangle x="680" y="455" width="50" height="26" as="alternateBounds" />
          </mxGeometry>
        </mxCell>
        <mxCell id="E4-jLAxVd33f71r4XFcZ-3" value="Type: SNP Reference Value" style="text;strokeColor=#666666;fillColor=#f5f5f5;align=left;verticalAlign=top;spacingLeft=4;spacingRight=4;overflow=hidden;rotatable=0;points=[[0,0.5],[1,0.5]];portConstraint=eastwest;fontColor=#333333;" parent="E4-jLAxVd33f71r4XFcZ-2" vertex="1">
          <mxGeometry y="26" width="160" height="26" as="geometry" />
        </mxCell>
        <mxCell id="E4-jLAxVd33f71r4XFcZ-4" value="Name" style="text;strokeColor=none;fillColor=none;align=left;verticalAlign=top;spacingLeft=4;spacingRight=4;overflow=hidden;rotatable=0;points=[[0,0.5],[1,0.5]];portConstraint=eastwest;" parent="E4-jLAxVd33f71r4XFcZ-2" vertex="1">
          <mxGeometry y="52" width="160" height="26" as="geometry" />
        </mxCell>
        <mxCell id="E4-jLAxVd33f71r4XFcZ-5" value="SHA-384" style="text;strokeColor=none;fillColor=none;align=left;verticalAlign=top;spacingLeft=4;spacingRight=4;overflow=hidden;rotatable=0;points=[[0,0.5],[1,0.5]];portConstraint=eastwest;" parent="E4-jLAxVd33f71r4XFcZ-2" vertex="1">
          <mxGeometry y="78" width="160" height="26" as="geometry" />
        </mxCell>
        <mxCell id="E4-jLAxVd33f71r4XFcZ-6" value="SNP Metadata" style="text;strokeColor=none;fillColor=none;align=left;verticalAlign=top;spacingLeft=4;spacingRight=4;overflow=hidden;rotatable=0;points=[[0,0.5],[1,0.5]];portConstraint=eastwest;" parent="E4-jLAxVd33f71r4XFcZ-2" vertex="1">
          <mxGeometry y="104" width="160" height="26" as="geometry" />
        </mxCell>
        <mxCell id="lq2JTJl8p897F5JPJgfw-2" value="" style="endArrow=classic;html=1;rounded=0;entryX=0.019;entryY=0.12;entryDx=0;entryDy=0;entryPerimeter=0;exitX=1;exitY=0.769;exitDx=0;exitDy=0;exitPerimeter=0;edgeStyle=orthogonalEdgeStyle;" parent="1" source="8SOkYBMObIGiR1r_MHa4-14" target="8SOkYBMObIGiR1r_MHa4-15" edge="1">
          <mxGeometry width="50" height="50" relative="1" as="geometry">
            <mxPoint x="2384" y="-607" as="sourcePoint" />
            <mxPoint x="2434" y="-657" as="targetPoint" />
          </mxGeometry>
        </mxCell>
        <mxCell id="7s3BV-N7wV2x4YoW4JKh-2" style="edgeStyle=orthogonalEdgeStyle;rounded=0;orthogonalLoop=1;jettySize=auto;html=1;entryX=0.5;entryY=0;entryDx=0;entryDy=0;exitX=1;exitY=0.5;exitDx=0;exitDy=0;" parent="1" source="bv4hWaqBqw9MEDCzKTS7-229" target="E4-jLAxVd33f71r4XFcZ-2" edge="1">
          <mxGeometry relative="1" as="geometry">
            <Array as="points">
              <mxPoint x="1880" y="-783" />
              <mxPoint x="1880" y="-700" />
              <mxPoint x="1613" y="-700" />
            </Array>
          </mxGeometry>
        </mxCell>
        <mxCell id="7s3BV-N7wV2x4YoW4JKh-3" style="edgeStyle=orthogonalEdgeStyle;rounded=0;orthogonalLoop=1;jettySize=auto;html=1;exitX=1;exitY=0.5;exitDx=0;exitDy=0;" parent="1" source="bv4hWaqBqw9MEDCzKTS7-229" target="bv4hWaqBqw9MEDCzKTS7-76" edge="1">
          <mxGeometry relative="1" as="geometry">
            <Array as="points">
              <mxPoint x="1880" y="-783" />
              <mxPoint x="1880" y="-700" />
              <mxPoint x="1428" y="-700" />
            </Array>
          </mxGeometry>
        </mxCell>
        <mxCell id="7s3BV-N7wV2x4YoW4JKh-4" style="edgeStyle=orthogonalEdgeStyle;rounded=0;orthogonalLoop=1;jettySize=auto;html=1;entryX=0.5;entryY=0;entryDx=0;entryDy=0;exitX=1;exitY=0.5;exitDx=0;exitDy=0;" parent="1" source="bv4hWaqBqw9MEDCzKTS7-52" target="bv4hWaqBqw9MEDCzKTS7-76" edge="1">
          <mxGeometry relative="1" as="geometry">
            <Array as="points">
              <mxPoint x="1510" y="-757" />
              <mxPoint x="1510" y="-700" />
              <mxPoint x="1428" y="-700" />
            </Array>
          </mxGeometry>
        </mxCell>
        <mxCell id="7s3BV-N7wV2x4YoW4JKh-5" style="edgeStyle=orthogonalEdgeStyle;rounded=0;orthogonalLoop=1;jettySize=auto;html=1;exitX=1;exitY=0.5;exitDx=0;exitDy=0;" parent="1" source="bv4hWaqBqw9MEDCzKTS7-52" target="bv4hWaqBqw9MEDCzKTS7-57" edge="1">
          <mxGeometry relative="1" as="geometry">
            <Array as="points">
              <mxPoint x="1510" y="-757" />
              <mxPoint x="1510" y="-700" />
              <mxPoint x="1791" y="-700" />
            </Array>
          </mxGeometry>
        </mxCell>
        <mxCell id="7s3BV-N7wV2x4YoW4JKh-6" style="edgeStyle=orthogonalEdgeStyle;rounded=0;orthogonalLoop=1;jettySize=auto;html=1;entryX=0.5;entryY=0;entryDx=0;entryDy=0;exitX=1;exitY=0.5;exitDx=0;exitDy=0;" parent="1" source="bv4hWaqBqw9MEDCzKTS7-225" target="bv4hWaqBqw9MEDCzKTS7-57" edge="1">
          <mxGeometry relative="1" as="geometry">
            <Array as="points">
              <mxPoint x="1700" y="-757" />
              <mxPoint x="1700" y="-700" />
              <mxPoint x="1791" y="-700" />
            </Array>
          </mxGeometry>
        </mxCell>
        <mxCell id="7s3BV-N7wV2x4YoW4JKh-7" style="edgeStyle=orthogonalEdgeStyle;rounded=0;orthogonalLoop=1;jettySize=auto;html=1;exitX=1;exitY=0.5;exitDx=0;exitDy=0;entryX=0.5;entryY=0;entryDx=0;entryDy=0;" parent="1" source="bv4hWaqBqw9MEDCzKTS7-225" target="E4-jLAxVd33f71r4XFcZ-2" edge="1">
          <mxGeometry relative="1" as="geometry">
            <Array as="points">
              <mxPoint x="1700" y="-757" />
              <mxPoint x="1700" y="-700" />
              <mxPoint x="1613" y="-700" />
            </Array>
          </mxGeometry>
        </mxCell>
        <mxCell id="7s3BV-N7wV2x4YoW4JKh-8" style="edgeStyle=orthogonalEdgeStyle;rounded=0;orthogonalLoop=1;jettySize=auto;html=1;entryX=0.5;entryY=0;entryDx=0;entryDy=0;exitX=1;exitY=0.5;exitDx=0;exitDy=0;" parent="1" source="bv4hWaqBqw9MEDCzKTS7-225" target="bv4hWaqBqw9MEDCzKTS7-76" edge="1">
          <mxGeometry relative="1" as="geometry">
            <mxPoint x="1430" y="-540" as="targetPoint" />
            <Array as="points">
              <mxPoint x="1700" y="-757" />
              <mxPoint x="1700" y="-700" />
              <mxPoint x="1428" y="-700" />
            </Array>
          </mxGeometry>
        </mxCell>
        <mxCell id="bv4hWaqBqw9MEDCzKTS7-57" value="TPM Reference Value" style="swimlane;fontStyle=0;childLayout=stackLayout;horizontal=1;startSize=26;horizontalStack=0;resizeParent=1;resizeParentMax=0;resizeLast=0;collapsible=1;marginBottom=0;fillColor=#d5e8d4;strokeColor=#82b366;" parent="1" vertex="1">
          <mxGeometry x="1706" y="-690.25" width="170" height="130" as="geometry">
            <mxRectangle x="680" y="455" width="50" height="26" as="alternateBounds" />
          </mxGeometry>
        </mxCell>
        <mxCell id="bv4hWaqBqw9MEDCzKTS7-58" value="Type: TPM Reference Value" style="text;strokeColor=#666666;fillColor=#f5f5f5;align=left;verticalAlign=top;spacingLeft=4;spacingRight=4;overflow=hidden;rotatable=0;points=[[0,0.5],[1,0.5]];portConstraint=eastwest;fontColor=#333333;" parent="bv4hWaqBqw9MEDCzKTS7-57" vertex="1">
          <mxGeometry y="26" width="170" height="26" as="geometry" />
        </mxCell>
        <mxCell id="bv4hWaqBqw9MEDCzKTS7-59" value="Name" style="text;strokeColor=none;fillColor=none;align=left;verticalAlign=top;spacingLeft=4;spacingRight=4;overflow=hidden;rotatable=0;points=[[0,0.5],[1,0.5]];portConstraint=eastwest;" parent="bv4hWaqBqw9MEDCzKTS7-57" vertex="1">
          <mxGeometry y="52" width="170" height="26" as="geometry" />
        </mxCell>
        <mxCell id="bv4hWaqBqw9MEDCzKTS7-74" value="SHA-256" style="text;strokeColor=none;fillColor=none;align=left;verticalAlign=top;spacingLeft=4;spacingRight=4;overflow=hidden;rotatable=0;points=[[0,0.5],[1,0.5]];portConstraint=eastwest;" parent="bv4hWaqBqw9MEDCzKTS7-57" vertex="1">
          <mxGeometry y="78" width="170" height="26" as="geometry" />
        </mxCell>
        <mxCell id="bv4hWaqBqw9MEDCzKTS7-75" value="PCR (int)" style="text;strokeColor=none;fillColor=none;align=left;verticalAlign=top;spacingLeft=4;spacingRight=4;overflow=hidden;rotatable=0;points=[[0,0.5],[1,0.5]];portConstraint=eastwest;" parent="bv4hWaqBqw9MEDCzKTS7-57" vertex="1">
          <mxGeometry y="104" width="170" height="26" as="geometry" />
        </mxCell>
        <mxCell id="a4NuGPZ5ydBskTdLNqVr-2" value="" style="edgeStyle=elbowEdgeStyle;elbow=horizontal;endArrow=classic;html=1;rounded=0;fontColor=#000000;exitX=1;exitY=0.5;exitDx=0;exitDy=0;entryX=0;entryY=0.5;entryDx=0;entryDy=0;" parent="1" source="bv4hWaqBqw9MEDCzKTS7-106" target="bv4hWaqBqw9MEDCzKTS7-212" edge="1">
          <mxGeometry width="50" height="50" relative="1" as="geometry">
            <mxPoint x="1400" y="-650" as="sourcePoint" />
            <mxPoint x="1450" y="-700" as="targetPoint" />
            <Array as="points">
              <mxPoint x="1120" y="-775" />
            </Array>
          </mxGeometry>
        </mxCell>
        <mxCell id="a4NuGPZ5ydBskTdLNqVr-6" value="&lt;span style=&quot;&quot;&gt;signed by operator and&lt;/span&gt;&lt;br style=&quot;padding: 0px; margin: 0px;&quot;&gt;&lt;span style=&quot;&quot;&gt;possibly certifiers&lt;/span&gt;" style="rounded=0;whiteSpace=wrap;html=1;fillColor=#dae8fc;strokeColor=#6c8ebf;" parent="1" vertex="1">
          <mxGeometry x="1447" y="-538" width="135" height="30" as="geometry" />
        </mxCell>
        <mxCell id="a4NuGPZ5ydBskTdLNqVr-7" value="&lt;span style=&quot;&quot;&gt;Signed by the HW Trust Anchor,&amp;nbsp;&lt;/span&gt;&lt;span style=&quot;&quot;&gt;generated at runtime&lt;/span&gt;" style="rounded=0;whiteSpace=wrap;html=1;fillColor=#ffe6cc;strokeColor=#d79b00;" parent="1" vertex="1">
          <mxGeometry x="1587.5" y="-538" width="159.5" height="30" as="geometry" />
        </mxCell>
        <mxCell id="a4NuGPZ5ydBskTdLNqVr-8" value="Signed by the device, generated at runtime" style="rounded=0;whiteSpace=wrap;html=1;fillColor=#f8cecc;strokeColor=#b85450;" parent="1" vertex="1">
          <mxGeometry x="1752" y="-538" width="120" height="30" as="geometry" />
        </mxCell>
        <mxCell id="a4NuGPZ5ydBskTdLNqVr-9" value="Signed by software provider and possibly certifiers" style="rounded=0;whiteSpace=wrap;html=1;fillColor=#d5e8d4;strokeColor=#82b366;" parent="1" vertex="1">
          <mxGeometry x="1287" y="-538" width="155" height="30" as="geometry" />
        </mxCell>
        <mxCell id="a4NuGPZ5ydBskTdLNqVr-13" value="&lt;b&gt;Explanation of Graphical Elements&lt;/b&gt;" style="text;html=1;strokeColor=none;fillColor=none;align=center;verticalAlign=middle;whiteSpace=wrap;rounded=0;fontColor=#000000;" parent="1" vertex="1">
          <mxGeometry x="943" y="-574" width="201" height="25" as="geometry" />
        </mxCell>
        <mxCell id="44HVYcmZlzGQckWCJ3xx-1" value="SGX Measurement" style="swimlane;fontStyle=0;childLayout=stackLayout;horizontal=1;startSize=26;horizontalStack=0;resizeParent=1;resizeParentMax=0;resizeLast=0;collapsible=1;marginBottom=0;fillColor=#f8cecc;strokeColor=#b85450;" parent="1" vertex="1">
          <mxGeometry x="1600" y="-1055" width="150" height="108" as="geometry">
            <mxRectangle x="680" y="455" width="50" height="26" as="alternateBounds" />
          </mxGeometry>
        </mxCell>
        <mxCell id="44HVYcmZlzGQckWCJ3xx-2" value="Type: SGX Measurement" style="text;strokeColor=#666666;fillColor=#f5f5f5;align=left;verticalAlign=top;spacingLeft=4;spacingRight=4;overflow=hidden;rotatable=0;points=[[0,0.5],[1,0.5]];portConstraint=eastwest;fontColor=#333333;" parent="44HVYcmZlzGQckWCJ3xx-1" vertex="1">
          <mxGeometry y="26" width="150" height="26" as="geometry" />
        </mxCell>
        <mxCell id="44HVYcmZlzGQckWCJ3xx-3" value="SGX Report [Nonce, ...]" style="text;align=left;verticalAlign=top;spacingLeft=4;spacingRight=4;overflow=hidden;rotatable=0;points=[[0,0.5],[1,0.5]];portConstraint=eastwest;fillColor=#ffe6cc;strokeColor=#d79b00;" parent="44HVYcmZlzGQckWCJ3xx-1" vertex="1">
          <mxGeometry y="52" width="150" height="26" as="geometry" />
        </mxCell>
        <mxCell id="44HVYcmZlzGQckWCJ3xx-4" value="Certificate Chain" style="text;align=left;verticalAlign=top;spacingLeft=4;spacingRight=4;overflow=hidden;rotatable=0;points=[[0,0.5],[1,0.5]];portConstraint=eastwest;" parent="44HVYcmZlzGQckWCJ3xx-1" vertex="1">
          <mxGeometry y="78" width="150" height="30" as="geometry" />
        </mxCell>
        <mxCell id="44HVYcmZlzGQckWCJ3xx-5" style="edgeStyle=orthogonalEdgeStyle;rounded=0;orthogonalLoop=1;jettySize=auto;html=1;exitX=1;exitY=0.5;exitDx=0;exitDy=0;entryX=0.5;entryY=0;entryDx=0;entryDy=0;" parent="1" source="bv4hWaqBqw9MEDCzKTS7-27" target="44HVYcmZlzGQckWCJ3xx-1" edge="1">
          <mxGeometry relative="1" as="geometry">
            <mxPoint x="799" y="-1334" as="targetPoint" />
            <Array as="points">
              <mxPoint x="1127" y="-979" />
              <mxPoint x="1127" y="-1070" />
              <mxPoint x="1675" y="-1070" />
            </Array>
          </mxGeometry>
        </mxCell>
        <mxCell id="44HVYcmZlzGQckWCJ3xx-6" value="SGX Reference Value" style="swimlane;fontStyle=0;childLayout=stackLayout;horizontal=1;startSize=26;horizontalStack=0;resizeParent=1;resizeParentMax=0;resizeLast=0;collapsible=1;marginBottom=0;fillColor=#d5e8d4;strokeColor=#82b366;" parent="1" vertex="1">
          <mxGeometry x="1889" y="-690.25" width="160" height="130" as="geometry">
            <mxRectangle x="680" y="455" width="50" height="26" as="alternateBounds" />
          </mxGeometry>
        </mxCell>
        <mxCell id="44HVYcmZlzGQckWCJ3xx-7" value="Type: SGX Reference Value" style="text;strokeColor=#666666;fillColor=#f5f5f5;align=left;verticalAlign=top;spacingLeft=4;spacingRight=4;overflow=hidden;rotatable=0;points=[[0,0.5],[1,0.5]];portConstraint=eastwest;fontColor=#333333;" parent="44HVYcmZlzGQckWCJ3xx-6" vertex="1">
          <mxGeometry y="26" width="160" height="26" as="geometry" />
        </mxCell>
        <mxCell id="44HVYcmZlzGQckWCJ3xx-8" value="Name" style="text;strokeColor=none;fillColor=none;align=left;verticalAlign=top;spacingLeft=4;spacingRight=4;overflow=hidden;rotatable=0;points=[[0,0.5],[1,0.5]];portConstraint=eastwest;" parent="44HVYcmZlzGQckWCJ3xx-6" vertex="1">
          <mxGeometry y="52" width="160" height="26" as="geometry" />
        </mxCell>
        <mxCell id="44HVYcmZlzGQckWCJ3xx-9" value="SHA-256" style="text;strokeColor=none;fillColor=none;align=left;verticalAlign=top;spacingLeft=4;spacingRight=4;overflow=hidden;rotatable=0;points=[[0,0.5],[1,0.5]];portConstraint=eastwest;" parent="44HVYcmZlzGQckWCJ3xx-6" vertex="1">
          <mxGeometry y="78" width="160" height="26" as="geometry" />
        </mxCell>
        <mxCell id="44HVYcmZlzGQckWCJ3xx-10" value="SGX Metadata" style="text;strokeColor=none;fillColor=none;align=left;verticalAlign=top;spacingLeft=4;spacingRight=4;overflow=hidden;rotatable=0;points=[[0,0.5],[1,0.5]];portConstraint=eastwest;" parent="44HVYcmZlzGQckWCJ3xx-6" vertex="1">
          <mxGeometry y="104" width="160" height="26" as="geometry" />
        </mxCell>
        <mxCell id="44HVYcmZlzGQckWCJ3xx-11" style="edgeStyle=orthogonalEdgeStyle;rounded=0;orthogonalLoop=1;jettySize=auto;html=1;exitX=1;exitY=0.5;exitDx=0;exitDy=0;entryX=0.5;entryY=0;entryDx=0;entryDy=0;" parent="1" source="bv4hWaqBqw9MEDCzKTS7-229" target="44HVYcmZlzGQckWCJ3xx-6" edge="1">
          <mxGeometry relative="1" as="geometry">
            <Array as="points">
              <mxPoint x="1880" y="-783" />
              <mxPoint x="1880" y="-700" />
              <mxPoint x="1969" y="-700" />
            </Array>
          </mxGeometry>
        </mxCell>
        <mxCell id="9eVOJ00P0O0EleqzxzfZ-2" value="TDX Reference Value" style="swimlane;fontStyle=0;childLayout=stackLayout;horizontal=1;startSize=26;horizontalStack=0;resizeParent=1;resizeParentMax=0;resizeLast=0;collapsible=1;marginBottom=0;fillColor=#d5e8d4;strokeColor=#82b366;" vertex="1" parent="1">
          <mxGeometry x="2061" y="-690.25" width="160" height="130" as="geometry">
            <mxRectangle x="680" y="455" width="50" height="26" as="alternateBounds" />
          </mxGeometry>
        </mxCell>
        <mxCell id="9eVOJ00P0O0EleqzxzfZ-3" value="Type: TDX Reference Value" style="text;strokeColor=#666666;fillColor=#f5f5f5;align=left;verticalAlign=top;spacingLeft=4;spacingRight=4;overflow=hidden;rotatable=0;points=[[0,0.5],[1,0.5]];portConstraint=eastwest;fontColor=#333333;" vertex="1" parent="9eVOJ00P0O0EleqzxzfZ-2">
          <mxGeometry y="26" width="160" height="26" as="geometry" />
        </mxCell>
        <mxCell id="9eVOJ00P0O0EleqzxzfZ-4" value="Name" style="text;strokeColor=none;fillColor=none;align=left;verticalAlign=top;spacingLeft=4;spacingRight=4;overflow=hidden;rotatable=0;points=[[0,0.5],[1,0.5]];portConstraint=eastwest;" vertex="1" parent="9eVOJ00P0O0EleqzxzfZ-2">
          <mxGeometry y="52" width="160" height="26" as="geometry" />
        </mxCell>
        <mxCell id="9eVOJ00P0O0EleqzxzfZ-5" value="SHA-384" style="text;strokeColor=none;fillColor=none;align=left;verticalAlign=top;spacingLeft=4;spacingRight=4;overflow=hidden;rotatable=0;points=[[0,0.5],[1,0.5]];portConstraint=eastwest;" vertex="1" parent="9eVOJ00P0O0EleqzxzfZ-2">
          <mxGeometry y="78" width="160" height="26" as="geometry" />
        </mxCell>
        <mxCell id="9eVOJ00P0O0EleqzxzfZ-6" value="TDX Metadata" style="text;strokeColor=none;fillColor=none;align=left;verticalAlign=top;spacingLeft=4;spacingRight=4;overflow=hidden;rotatable=0;points=[[0,0.5],[1,0.5]];portConstraint=eastwest;" vertex="1" parent="9eVOJ00P0O0EleqzxzfZ-2">
          <mxGeometry y="104" width="160" height="26" as="geometry" />
        </mxCell>
        <mxCell id="9eVOJ00P0O0EleqzxzfZ-7" style="edgeStyle=orthogonalEdgeStyle;rounded=0;orthogonalLoop=1;jettySize=auto;html=1;exitX=1;exitY=0.5;exitDx=0;exitDy=0;" edge="1" parent="1" source="bv4hWaqBqw9MEDCzKTS7-229" target="9eVOJ00P0O0EleqzxzfZ-2">
          <mxGeometry relative="1" as="geometry">
            <Array as="points">
              <mxPoint x="1880" y="-783" />
              <mxPoint x="1880" y="-700" />
              <mxPoint x="2141" y="-700" />
            </Array>
          </mxGeometry>
        </mxCell>
        <mxCell id="9eVOJ00P0O0EleqzxzfZ-12" value="TDX Measurement" style="swimlane;fontStyle=0;childLayout=stackLayout;horizontal=1;startSize=26;horizontalStack=0;resizeParent=1;resizeParentMax=0;resizeLast=0;collapsible=1;marginBottom=0;fillColor=#f8cecc;strokeColor=#b85450;" vertex="1" parent="1">
          <mxGeometry x="1755" y="-1055" width="150" height="108" as="geometry">
            <mxRectangle x="680" y="455" width="50" height="26" as="alternateBounds" />
          </mxGeometry>
        </mxCell>
        <mxCell id="9eVOJ00P0O0EleqzxzfZ-13" value="Type: TDX Measurement" style="text;strokeColor=#666666;fillColor=#f5f5f5;align=left;verticalAlign=top;spacingLeft=4;spacingRight=4;overflow=hidden;rotatable=0;points=[[0,0.5],[1,0.5]];portConstraint=eastwest;fontColor=#333333;" vertex="1" parent="9eVOJ00P0O0EleqzxzfZ-12">
          <mxGeometry y="26" width="150" height="26" as="geometry" />
        </mxCell>
        <mxCell id="9eVOJ00P0O0EleqzxzfZ-14" value="TDX Report [Nonce, ...]" style="text;align=left;verticalAlign=top;spacingLeft=4;spacingRight=4;overflow=hidden;rotatable=0;points=[[0,0.5],[1,0.5]];portConstraint=eastwest;fillColor=#ffe6cc;strokeColor=#d79b00;" vertex="1" parent="9eVOJ00P0O0EleqzxzfZ-12">
          <mxGeometry y="52" width="150" height="26" as="geometry" />
        </mxCell>
        <mxCell id="9eVOJ00P0O0EleqzxzfZ-15" value="Certificate Chain" style="text;align=left;verticalAlign=top;spacingLeft=4;spacingRight=4;overflow=hidden;rotatable=0;points=[[0,0.5],[1,0.5]];portConstraint=eastwest;" vertex="1" parent="9eVOJ00P0O0EleqzxzfZ-12">
          <mxGeometry y="78" width="150" height="30" as="geometry" />
        </mxCell>
        <mxCell id="9eVOJ00P0O0EleqzxzfZ-16" style="edgeStyle=orthogonalEdgeStyle;rounded=0;orthogonalLoop=1;jettySize=auto;html=1;exitX=1;exitY=0.5;exitDx=0;exitDy=0;entryX=0.5;entryY=0;entryDx=0;entryDy=0;" edge="1" parent="1" source="bv4hWaqBqw9MEDCzKTS7-27" target="9eVOJ00P0O0EleqzxzfZ-12">
          <mxGeometry relative="1" as="geometry">
            <mxPoint x="1322.6296296296296" y="-1125" as="targetPoint" />
            <Array as="points">
              <mxPoint x="1127" y="-979" />
              <mxPoint x="1127" y="-1070" />
              <mxPoint x="1830" y="-1070" />
            </Array>
          </mxGeometry>
        </mxCell>
        <mxCell id="9eVOJ00P0O0EleqzxzfZ-17" style="edgeStyle=orthogonalEdgeStyle;rounded=0;orthogonalLoop=1;jettySize=auto;html=1;exitX=1;exitY=0.5;exitDx=0;exitDy=0;entryX=0.5;entryY=0;entryDx=0;entryDy=0;" edge="1" parent="1" source="bv4hWaqBqw9MEDCzKTS7-27" target="RXLIFEGcNu4bPyWQ7Plb-3">
          <mxGeometry relative="1" as="geometry">
            <Array as="points">
              <mxPoint x="1127" y="-979" />
              <mxPoint x="1127" y="-1070" />
              <mxPoint x="1520" y="-1070" />
            </Array>
          </mxGeometry>
        </mxCell>
      </root>
    </mxGraphModel>
  </diagram>
</mxfile>
